<svg width="158" height="159" xmlns="http://www.w3.org/2000/svg" xmlns:xlink="http://www.w3.org/1999/xlink" overflow="hidden"><defs><clipPath id="clip0"><rect x="161" y="242" width="158" height="159"/></clipPath></defs><g clip-path="url(#clip0)" transform="translate(-161 -242)"><path d="M157.219 79.015C157.219 122.161 122.243 157.137 79.0971 157.137 35.9515 157.137 0.97509 122.161 0.97509 79.015 0.97509 35.8694 35.9515 0.892973 79.0971 0.892973 122.243 0.892973 157.219 35.8694 157.219 79.015Z" fill="#FFFFFF" transform="matrix(-1.8486e-16 -1.00633 1 -1.83697e-16 161.008 401)"/><path d="M140.567 127.232C150.998 113.953 157.219 97.2107 157.219 79.015 157.219 35.8695 122.243 0.89298 79.0968 0.89298 69.7114 0.89298 60.7131 2.54961 52.3765 5.58382 84.0923 22.2208 126.045 76.5002 140.567 127.232Z" fill="#3E5BA9" transform="matrix(-1.8486e-16 -1.00633 1 -1.83697e-16 161.008 401)"/><path d="M67.9081 50.7258C55.7216 37.5971 42.0741 27.1706 27.6197 20.2555 11.289 34.5743 0.975086 55.5888 0.975086 79.015 0.975086 98.7124 8.2677 116.705 20.2968 130.446 30.9012 98.5864 50.8369 67.8785 67.9081 50.7258Z" fill="#9F1D20" transform="matrix(-1.8486e-16 -1.00633 1 -1.83697e-16 161.008 401)"/><path d="M82.3029 68.4403C65.3903 86.6675 48.537 118.575 42.4377 148.013 53.3704 153.834 65.8472 157.137 79.0971 157.137 92.7193 157.137 105.525 153.647 116.674 147.518 110.248 117.823 98.116 90.6265 82.3029 68.4403Z" fill="#9F1D20" transform="matrix(-1.8486e-16 -1.00633 1 -1.83697e-16 161.008 401)"/></g></svg>